# xmcd
#
# Track frame offsets: 
#        150
#        14437
#        29435
#        41795
#        57275
#        71635
#        83262
#        97027
#        111412
#        124857
#        139210
#        153990
#        168727
#        181155
#        194525
#        207927
#        222647
#        237922
#        253387
#        267327
#
# Disc length: 3762 seconds
#
# Revision: 0
# Processed by: cddbd v1.5.2PL0 Copyright (c) Steve Scherf et al.
# Submitted via: ExactAudioCopy v0.99pb4
#
DISCID=330eb014
DTITLE=Billie Holiday - You're My Thrill: Original Recordings 1944-194
DTITLE=9 
DYEAR=2004
DGENRE=Jazz
TTITLE0=What Is This Thing Called Love
TTITLE1=Lover Man (Oh, Where Can You Be?)
TTITLE2=You Better Go Now
TTITLE3=Don't Explain
TTITLE4=Good Morning Heartache
TTITLE5=Big Stuff
TTITLE6=The Blues Are Brewin'
TTITLE7=Deep Song
TTITLE8=There Is No Greater Love
TTITLE9=Solitude
TTITLE10=Keeps on Rainin'
TTITLE11=Do Your Duty
TTITLE12=Gimme a Pigfoot and a Bottle of Beer
TTITLE13=I Loves You Porgy
TTITLE14=My Man
TTITLE15=You Can't Lose a Broken Heart
TTITLE16=My Sweet Hunk O'Trash
TTITLE17=You're My Thrill
TTITLE18=Crazy He Calls Me
TTITLE19='Tain't Nobody's Business If I Do
EXTD=
EXTT0=What Is This Thing Called Love
EXTT1=
EXTT2=
EXTT3=
EXTT4=
EXTT5=
EXTT6=
EXTT7=
EXTT8=
EXTT9=
EXTT10=
EXTT11=
EXTT12=
EXTT13=
EXTT14=
EXTT15=
EXTT16=
EXTT17=
EXTT18=
EXTT19=
PLAYORDER=
